<?xml version="1.0" encoding="UTF-8"?>
<svg version="1.1" xmlns="http://www.w3.org/2000/svg" width="27" height="32">
<path d="M0 0 C2.02575154 2.02575154 1.2757576 5.92202217 1.3125 8.6875 C1.34150391 9.39583984 1.37050781 10.10417969 1.40039062 10.83398438 C1.47440937 17.00031551 -0.61966496 20.30989533 -4.7109375 24.93359375 C-9.13018598 28.9275155 -9.13018598 28.9275155 -13 29.25 C-18.16621909 27.09740871 -21.7321433 24.03032353 -24.6953125 19.28515625 C-26.21455604 15.45975559 -26.3401897 12.16540434 -26.1875 8.125 C-26.17396484 7.43664063 -26.16042969 6.74828125 -26.14648438 6.0390625 C-26.1114837 4.35902999 -26.05768954 2.6794065 -26 1 C-16.51471879 -2.89657215 -9.72850958 -3.5028753 0 0 Z " fill="#1980A5" transform="translate(26,3)"/>
<path d="M0 0 C2.02575154 2.02575154 1.2757576 5.92202217 1.3125 8.6875 C1.34150391 9.39583984 1.37050781 10.10417969 1.40039062 10.83398438 C1.46247833 16.0063674 0.4000349 18.89346434 -3 23 C-3.66 23.33 -4.32 23.66 -5 24 C-3.66666667 21.33333333 -2.33333333 18.66666667 -1 16 C-0.67 13.03 -0.34 10.06 0 7 C-8.25 7 -16.5 7 -25 7 C-25 8.98 -25 10.96 -25 13 C-23.35 13 -21.7 13 -20 13 C-21.32 13.33 -22.64 13.66 -24 14 C-21.76537994 18.79016959 -19.51098025 22.98745115 -16 27 C-20.42031678 25.26344698 -22.55184363 22.19263113 -25.109375 18.3203125 C-26.38679145 14.99230649 -26.21119862 11.75762086 -26.125 8.25 C-26.11597656 7.55261719 -26.10695313 6.85523438 -26.09765625 6.13671875 C-26.07419888 4.42433042 -26.03833104 2.71211996 -26 1 C-16.51471879 -2.89657215 -9.72850958 -3.5028753 0 0 Z " fill="#12344E" transform="translate(26,3)"/>
<path d="M0 0 C1.18851563 0.10183594 2.37703125 0.20367187 3.6015625 0.30859375 C4.51679688 0.39238281 5.43203125 0.47617188 6.375 0.5625 C7.13830313 8.44996564 5.28292503 13.32628334 0.375 19.5625 C-2.12832396 21.75230555 -3.08597087 22.5145863 -6.4375 22.8125 C-11.34545681 20.88781106 -13.9997767 17.04635247 -16.625 12.5625 C-17.32421875 9.765625 -17.32421875 9.765625 -17.625 7.5625 C-15.315 7.5625 -13.005 7.5625 -10.625 7.5625 C-10.625 8.5525 -10.625 9.5425 -10.625 10.5625 C-11.615 10.8925 -12.605 11.2225 -13.625 11.5625 C-11.71522304 14.32106672 -10.31454872 16.23587166 -7.25 17.6875 C-3.16297934 17.49287997 -1.40846546 15.40922603 1.375 12.5625 C2.31936349 10.39718832 2.31936349 10.39718832 2.375 8.5625 C-0.6934847 5.58699969 -2.08736331 4.59775487 -6.4375 4.3125 C-7.489375 4.395 -8.54125 4.4775 -9.625 4.5625 C-9.25 2.625 -9.25 2.625 -8.625 0.5625 C-5.68113377 -0.90943312 -3.25109964 -0.28686173 0 0 Z " fill="#9B9E9F" transform="translate(19.625,9.4375)"/>
<path d="M0 0 C2 1 4 2 6 3 C3.46560359 7.13012748 1.18094772 10.45064164 -3 13 C-5.5 13.125 -5.5 13.125 -8 12 C-9.89844673 10.11195572 -11.39121612 8.16036693 -13 6 C-12.67 5.34 -12.34 4.68 -12 4 C-9.63158688 5.57894208 -7.93254772 6.9754262 -6 9 C-6.33 7.68 -6.66 6.36 -7 5 C-5.6078125 5.5259375 -5.6078125 5.5259375 -4.1875 6.0625 C-1.0197047 7.32382628 -1.0197047 7.32382628 2 6 C1.34 4.02 0.68 2.04 0 0 Z " fill="#113F58" transform="translate(18,15)"/>
<path d="M0 0 C0 1.32 0 2.64 0 4 C-0.66 4 -1.32 4 -2 4 C-2 3.34 -2 2.68 -2 2 C-9.21805755 1.2061358 -15.80827843 0.92124177 -23 2 C-23 2.66 -23 3.32 -23 4 C-23.66 4 -24.32 4 -25 4 C-25 2.68 -25 1.36 -25 0 C-15.64751088 -3.3921938 -9.41914736 -2.94348355 0 0 Z " fill="#8F9396" transform="translate(26,5)"/>
<path d="M0 0 C2.31 0 4.62 0 7 0 C7 0.99 7 1.98 7 3 C6.01 3.33 5.02 3.66 4 4 C6.21928194 6.90802461 7.92969143 8.95312762 11 11 C11 11.66 11 12.32 11 13 C12.423125 12.2265625 12.423125 12.2265625 13.875 11.4375 C14.90625 10.963125 15.9375 10.48875 17 10 C17.66 10.33 18.32 10.66 19 11 C16.38340065 13.53964054 14.80145025 14.91288584 11.125 15.3125 C6.29874418 13.28547255 3.61059161 9.4588617 1 5 C0.30078125 2.203125 0.30078125 2.203125 0 0 Z " fill="#69747F" transform="translate(2,17)"/>
<path d="M0 0 C2.64 0.33 5.28 0.66 8 1 C8.33 2.98 8.66 4.96 9 7 C6.03 6.67 3.06 6.34 0 6 C0 4.02 0 2.04 0 0 Z " fill="#0086B4" transform="translate(1,10)"/>
<path d="M0 0 C0.99 0 1.98 0 3 0 C2.46608326 4.53829228 0.80333268 7.4179638 -2 11 C-4.98893229 13.18702362 -6.27944454 14 -10 14 C-10 13.34 -10 12.68 -10 12 C-9.0925 11.4225 -8.185 10.845 -7.25 10.25 C-3.75684991 7.83166533 -2.07559973 5.6722149 0 2 C0 1.34 0 0.68 0 0 Z " fill="#8D9294" transform="translate(23,16)"/>
<path d="M0 0 C2.88437779 1.29299694 4.87219421 2.65941363 7 5 C6.67 3.68 6.34 2.36 6 1 C7.32 1.66 8.64 2.32 10 3 C10 3.66 10 4.32 10 5 C9.34 5.66 8.68 6.32 8 7 C7.67 7.66 7.34 8.32 7 9 C1.21538462 4.56923077 1.21538462 4.56923077 0.125 1.6875 C0.08375 1.130625 0.0425 0.57375 0 0 Z " fill="#19455E" transform="translate(5,19)"/>
<path d="M0 0 C1.65 1.32 3.3 2.64 5 4 C3.35 4.33 1.7 4.66 0 5 C-0.66 4.01 -1.32 3.02 -2 2 C-1.34 2 -0.68 2 0 2 C0 1.34 0 0.68 0 0 Z " fill="#036C93" transform="translate(16,17)"/>
<path d="M0 0 C-0.66 1.32 -1.32 2.64 -2 4 C-1.01 3.67 -0.02 3.34 1 3 C1 3.66 1 4.32 1 5 C-0.32 5 -1.64 5 -3 5 C-3 3.68 -3 2.36 -3 1 C-4.32 0.67 -5.64 0.34 -7 0 C-3.98968256 -0.93423645 -3.13349732 -1.04449911 0 0 Z " fill="#1B6B8B" transform="translate(12,10)"/>
</svg>
