<?xml version="1.0" encoding="UTF-8"?>
<svg version="1.1" xmlns="http://www.w3.org/2000/svg" width="120" height="144">
<path d="M0 0 C1.03382812 0.49113281 2.06765625 0.98226563 3.1328125 1.48828125 C16.96861663 7.69066917 32.22811528 11.02509469 47.2734375 12.4765625 C50.2578125 12.80078125 50.2578125 12.80078125 53.2578125 13.80078125 C53.38587474 21.48288926 53.47268687 29.1647164 53.5324707 36.84765625 C53.55742535 39.45453172 53.59140137 42.0613386 53.63500977 44.66796875 C54.08840585 72.49048627 54.08840585 72.49048627 48.2578125 85.80078125 C47.98881134 86.42242661 47.71981018 87.04407196 47.44265747 87.68455505 C38.84802688 107.38641974 24.37985276 121.69877061 6.2578125 132.80078125 C5.19175781 133.45949219 4.12570313 134.11820313 3.02734375 134.796875 C-3.85345149 138.81763659 -3.85345149 138.81763659 -7.0078125 138.7578125 C-11.12799117 137.31574997 -14.6714573 135.10122796 -18.3671875 132.80078125 C-19.16825928 132.30457275 -19.96933105 131.80836426 -20.79467773 131.29711914 C-43.4117892 117.05789866 -58.22962361 97.25082246 -64.9453125 71.37890625 C-66.54440328 64.1986751 -66.87879203 57.37502677 -66.83984375 50.0546875 C-66.8384288 49.04357407 -66.83701385 48.03246063 -66.83555603 46.9907074 C-66.82998711 43.78153444 -66.81744037 40.57243289 -66.8046875 37.36328125 C-66.79966848 35.17903747 -66.79510628 32.99479259 -66.79101562 30.81054688 C-66.78002787 25.47393423 -66.76332086 20.13736285 -66.7421875 14.80078125 C-63.89771008 13.31994001 -61.69339053 12.49974249 -58.49609375 12.16015625 C-57.66916016 12.0624292 -56.84222656 11.96470215 -55.99023438 11.86401367 C-54.66088867 11.70896362 -54.66088867 11.70896362 -53.3046875 11.55078125 C-38.31776552 9.591134 -23.71734381 5.9810062 -10.3359375 -1.1953125 C-6.27289871 -2.76790432 -3.87772072 -1.69581234 0 0 Z " fill="#093A52" transform="translate(66.7421875,5.19921875)"/>
<path d="M0 0 C-1.38755014 2.77510029 -3.06760872 3.06341432 -5.875 4.3125 C-11.18751151 6.92719272 -12.86096716 8.83544723 -14.86328125 14.3984375 C-16.91262896 20.14449892 -16.91262896 20.14449892 -16 26 C-15.00764914 27.21127778 -15.00764914 27.21127778 -13.07421875 27.1328125 C-12.28660156 27.13023438 -11.49898437 27.12765625 -10.6875 27.125 C-9.90761719 27.12757812 -9.12773438 27.13015625 -8.32421875 27.1328125 C-6.06067937 27.00346739 -4.14580964 26.72948054 -2 26 C-0.93283296 24.20067421 -0.93283296 24.20067421 0 22 C3.02702703 17.24324324 3.02702703 17.24324324 6.75 16.3125 C11.48676211 17.31450737 14.36170047 19.91381597 18 23 C18.60070312 23.47953125 19.20140625 23.9590625 19.8203125 24.453125 C24.41347877 28.20180779 28.22315726 32.44459757 32 37 C32.6703125 37.77085938 33.340625 38.54171875 34.03125 39.3359375 C35.00578125 40.49996094 35.00578125 40.49996094 36 41.6875 C36.598125 42.39261719 37.19625 43.09773438 37.8125 43.82421875 C39 46 39 46 38.6875 48.76953125 C38.460625 49.50558594 38.23375 50.24164063 38 51 C36.375 51.83203125 36.375 51.83203125 34 52 C31.80707755 50.29273836 29.94447138 48.644004 28 46.6875 C23.50940134 42.1359006 23.50940134 42.1359006 18 39 C18.60328125 39.73605469 19.2065625 40.47210938 19.828125 41.23046875 C20.62734375 42.20628906 21.4265625 43.18210938 22.25 44.1875 C23.43335937 45.63189453 23.43335937 45.63189453 24.640625 47.10546875 C26.77584772 49.72500523 28.89356361 52.35729197 31 55 C29.25 56.5625 29.25 56.5625 27 58 C23.19985002 57.65742883 21.26117884 55.67868916 18.5625 53.125 C15.54184555 50.27770485 12.62538936 48.03328715 9 46 C11.8152754 50.02324818 14.50380836 53.80569806 18.375 56.875 C19.24125 57.57625 20.1075 58.2775 21 59 C21 59.66 21 60.32 21 61 C18.15926894 62.42036553 16.14852724 62.30004529 13 62 C10.65625 60.35546875 10.65625 60.35546875 8.5 58.1875 C5.81247736 55.60421517 3.94529389 53.97314427 0.5625 52.3125 C-2 51 -2 51 -2.9375 48.5 C-4.52416434 44.76667213 -7.37061776 44.52816094 -11 43 C-12.8125 40.375 -12.8125 40.375 -14 38 C-16.96390838 36.51804581 -19.72443978 36.94253403 -23 37 C-26 37 -26 37 -27.578125 35.54296875 C-31.38218779 33.11941261 -35.32636847 33.42684793 -39.75 33.3125 C-40.63816406 33.27833984 -41.52632812 33.24417969 -42.44140625 33.20898438 C-44.62747803 33.12671286 -46.81315951 33.05749828 -49 33 C-50.01085428 29.65613602 -50.11543463 26.6251882 -50.09765625 23.140625 C-50.09443359 22.02558594 -50.09121094 20.91054688 -50.08789062 19.76171875 C-50.07951172 18.60285156 -50.07113281 17.44398437 -50.0625 16.25 C-50.05798828 15.07566406 -50.05347656 13.90132812 -50.04882812 12.69140625 C-50.03705094 9.79421928 -50.02060326 6.89713546 -50 4 C-48.98164062 3.98541748 -47.96328125 3.97083496 -46.9140625 3.95581055 C-43.10431328 3.89745571 -39.29513234 3.82022822 -35.48583984 3.73754883 C-33.84303063 3.70447322 -32.20011253 3.67638823 -30.55712891 3.65356445 C-28.183451 3.61969595 -25.81075559 3.56736925 -23.4375 3.51171875 C-22.71320801 3.50532883 -21.98891602 3.4989389 -21.24267578 3.49235535 C-16.65871843 3.36275569 -13.04982241 2.49942145 -8.84399414 0.65657043 C-5.84308753 -0.41192892 -3.15404524 -0.19712783 0 0 Z " fill="#0087B5" transform="translate(55,41)"/>
<path d="M0 0 C4.14628323 1.83399251 7.86857838 1.86451963 12.34741211 1.7722168 C13.53114159 1.76584953 13.53114159 1.76584953 14.73878479 1.75935364 C17.23499097 1.74269256 19.73036028 1.70506584 22.22631836 1.66674805 C23.92878058 1.65168488 25.63125557 1.63799934 27.33374023 1.62573242 C31.48575056 1.59283055 35.63714306 1.54113756 39.78881836 1.47924805 C39.84778704 4.62500012 39.88273439 7.77060664 39.91381836 10.91674805 C39.93057617 11.79524414 39.94733398 12.67374023 39.96459961 13.57885742 C40.0084962 19.52684543 39.27763158 24.71742365 37.78881836 30.47924805 C36.23420898 30.82536133 36.23420898 30.82536133 34.64819336 31.1784668 C33.27816276 31.50689879 31.90838376 31.83638153 30.53881836 32.16674805 C29.51594727 32.39007813 29.51594727 32.39007813 28.47241211 32.61791992 C23.67556419 33.80548907 21.45559277 35.3347507 18.78881836 39.47924805 C15.00675945 38.21856174 14.09085014 36.61090196 11.66381836 33.47924805 C0.65834461 19.31973393 0.65834461 19.31973393 -14.96118164 11.91674805 C-20.15718951 12.8160571 -22.37471572 14.31748982 -25.46118164 18.60424805 C-26.03868164 19.55299805 -26.61618164 20.50174805 -27.21118164 21.47924805 C-28.21118164 22.47924805 -28.21118164 22.47924805 -30.05883789 22.5769043 C-32.10961914 22.54435221 -34.16040039 22.51180013 -36.21118164 22.47924805 C-35.83835782 20.57875589 -35.43680297 18.68388938 -35.02368164 16.79174805 C-34.80325195 15.73600586 -34.58282227 14.68026367 -34.35571289 13.5925293 C-32.48852304 8.513518 -29.25393386 5.86550754 -24.53930664 3.4597168 C-23.1878202 2.84443004 -21.82801575 2.24714265 -20.46118164 1.66674805 C-19.75034424 1.36269043 -19.03950684 1.05863281 -18.30712891 0.74536133 C-11.78293388 -1.91316809 -6.70635326 -3.17599593 0 0 Z " fill="#A1A3A3" transform="translate(77.211181640625,42.520751953125)"/>
<path d="M0 0 C2.97 0 5.94 0 9 0 C9.350625 1.216875 9.70125 2.43375 10.0625 3.6875 C16.25022836 22.13448361 28.47486977 36.21830856 45 46 C45.68707031 46.44859375 46.37414063 46.8971875 47.08203125 47.359375 C50.453916 49.51573692 50.453916 49.51573692 54.34375 49.78125 C69.31125719 45.379042 82.51772077 32.43823456 90.03271484 19.17773438 C92.64334933 14.3173361 95.17614993 9.39545162 96.97265625 4.171875 C98 2 98 2 101.5 0.6875 C105 0 105 0 107 0 C104.33536867 18.65241933 90.95668018 37.29305632 76.375 48.5625 C74.26425104 50.07249733 72.15078267 51.55024035 70 53 C69.05737305 53.64243652 69.05737305 53.64243652 68.09570312 54.29785156 C66.12291354 55.62371359 64.12998675 56.91094725 62.125 58.1875 C61.5067334 58.5987915 60.8884668 59.01008301 60.25146484 59.43383789 C57.19120635 61.31309639 55.53185476 62.0931766 51.9453125 61.46484375 C42.53161541 56.78296523 33.90548329 50.92557414 26 44 C25.24074219 43.33613281 24.48148438 42.67226562 23.69921875 41.98828125 C12.19209702 31.23637649 3.03420543 15.47444772 0 0 Z " fill="#A0A2A2" transform="translate(7,77)"/>
<path d="M0 0 C1.09054688 0.45117188 2.18109375 0.90234375 3.3046875 1.3671875 C4.48289062 1.86476563 5.66109375 2.36234375 6.875 2.875 C21.11643949 8.66714172 35.8397915 10.94964393 51 13 C51 18.94 51 24.88 51 31 C48.03 31 45.06 31 42 31 C42 27.7 42 24.4 42 21 C41.20980469 20.98582031 40.41960937 20.97164062 39.60546875 20.95703125 C25.71243536 20.36955441 12.10705442 17.05352721 -0.359375 10.8203125 C-6.22479914 8.99821328 -11.28600433 11.38847323 -16.625 13.8125 C-22.9626506 16.52781663 -29.29292129 18.10887079 -36.0625 19.375 C-36.95469238 19.54233643 -37.84688477 19.70967285 -38.76611328 19.88208008 C-43.22938819 20.66676213 -47.44926712 21.19428416 -52 21 C-52 24.3 -52 27.6 -52 31 C-54.97 31 -57.94 31 -61 31 C-61 25.06 -61 19.12 -61 13 C-58.73189453 12.67128906 -58.73189453 12.67128906 -56.41796875 12.3359375 C-39.67220452 9.79724899 -23.79905066 6.25920387 -8.54296875 -1.3125 C-5.05195151 -2.25630804 -3.30601466 -1.38894201 0 0 Z " fill="#9FA2A2" transform="translate(66,10)"/>
<path d="M0 0 C1 1 1 1 1.4375 3.1875 C0.86239944 6.88457504 -0.74524452 8.34487191 -3.296875 10.9609375 C-5 12 -5 12 -7.09375 11.76171875 C-9.29468812 10.88224553 -10.45632831 9.77522244 -12 8 C-9.43683592 2.01928381 -6.71856429 -0.74650714 0 0 Z " fill="#9EA1A1" transform="translate(39,81)"/>
<path d="M0 0 C1.65 0.33 3.3 0.66 5 1 C5.8125 3.0625 5.8125 3.0625 6 6 C4.58973707 8.54689275 2.86023965 10.76642506 1 13 C-1.875 12.75 -1.875 12.75 -5 12 C-5.66 10.68 -6.32 9.36 -7 8 C-4.69 5.36 -2.38 2.72 0 0 Z " fill="#9DA0A1" transform="translate(43,88)"/>
<path d="M0 0 C0.99 0.33 1.98 0.66 3 1 C2.67 4.3 2.34 7.6 2 11 C-3.75 10.25 -3.75 10.25 -6 8 C-4.02 5.36 -2.04 2.72 0 0 Z " fill="#93999B" transform="translate(52,95)"/>
<path d="M0 0 C2.9375 0.75 2.9375 0.75 6 2 C6.875 4.125 6.875 4.125 7 6 C5.02 6.99 5.02 6.99 3 8 C1.5 6.8125 1.5 6.8125 0 5 C-0.1875 2.3125 -0.1875 2.3125 0 0 Z " fill="#999D9E" transform="translate(20,77)"/>
<path d="M0 0 C2.03833424 1.2739589 4.03852126 2.61061923 6 4 C6 4.66 6 5.32 6 6 C3.6568787 5.74438677 1.32156597 5.40729228 -1 5 C-1.33 4.34 -1.66 3.68 -2 3 C-1.34 2.01 -0.68 1.02 0 0 Z " fill="#007EAA" transform="translate(59,100)"/>
</svg>
